<svg width="1190" height="48" viewBox="0 0 1190 48" fill="none" xmlns="http://www.w3.org/2000/svg">
<path d="M1184.35 47.5H11.156C9.49521 47.5 7.94282 46.6754 7.01303 45.2993L1.26979 36.7993C-0.973872 33.4787 1.40518 29 5.41274 29H1145.61C1149.62 29 1152 24.5314 1149.76 21.21L1140.74 7.78999C1138.5 4.46857 1140.88 0 1144.89 0H1160.27C1161.97 0 1163.56 0.866053 1164.48 2.29845L1188.55 39.7985C1190.69 43.1261 1188.3 47.5 1184.35 47.5Z" fill="white" fill-opacity="0.25"/>
<path d="M1184.35 47.5H11.156C9.49521 47.5 7.94282 46.6754 7.01303 45.2993L1.26979 36.7993C-0.973872 33.4787 1.40518 29 5.41274 29H1145.61C1149.62 29 1152 24.5314 1149.76 21.21L1140.74 7.78999C1138.5 4.46857 1140.88 0 1144.89 0H1160.27C1161.97 0 1163.56 0.866053 1164.48 2.29845L1188.55 39.7985C1190.69 43.1261 1188.3 47.5 1184.35 47.5Z" fill="url(#paint0_linear)"/>
<defs>
<linearGradient id="paint0_linear" x1="594.75" y1="-80.5" x2="594.75" y2="47.5" gradientUnits="userSpaceOnUse">
<stop stop-color="white"/>
<stop offset="1" stop-color="white" stop-opacity="0.4"/>
</linearGradient>
</defs>
</svg>
