<svg width="347" height="451" viewBox="0 0 347 451" fill="none" xmlns="http://www.w3.org/2000/svg">
<path d="M10 451L336.225 451C343.8 451 348.624 442.907 345.022 436.244L111.992 5.24394C110.246 2.01323 106.868 0 103.196 0L10 0C4.47715 0 0 4.47714 0 9.99999L0 441C0 446.523 4.47715 451 10 451Z" fill="black" fill-opacity="0.05"/>
<path d="M10 451L336.225 451C343.8 451 348.624 442.907 345.022 436.244L111.992 5.24394C110.246 2.01323 106.868 0 103.196 0L10 0C4.47715 0 0 4.47714 0 9.99999L0 441C0 446.523 4.47715 451 10 451Z" fill="url(#paint0_linear)"/>
<path d="M10 451L336.225 451C343.8 451 348.624 442.907 345.022 436.244L111.992 5.24394C110.246 2.01323 106.868 0 103.196 0L10 0C4.47715 0 0 4.47714 0 9.99999L0 441C0 446.523 4.47715 451 10 451Z" fill="url(#paint1_linear)"/>
<defs>
<linearGradient id="paint0_linear" x1="176.5" y1="0" x2="176.5" y2="451" gradientUnits="userSpaceOnUse">
<stop stop-color="white" stop-opacity="0"/>
<stop offset="1" stop-color="white"/>
</linearGradient>
<linearGradient id="paint1_linear" x1="176.5" y1="0" x2="176.5" y2="451" gradientUnits="userSpaceOnUse">
<stop stop-color="white" stop-opacity="0.6"/>
<stop offset="0.609375" stop-color="white" stop-opacity="0"/>
</linearGradient>
</defs>
</svg>
