<svg width="26" height="25" viewBox="0 0 26 25" fill="none" xmlns="http://www.w3.org/2000/svg">
<path d="M13.6888 8.33325H15.7721C16.0596 8.33325 16.293 8.5666 16.293 8.8541V15.1041C16.293 15.3916 16.0596 15.6249 15.7721 15.6249H13.6888C13.4013 15.6249 13.168 15.3916 13.168 15.1041V8.8541C13.168 8.5666 13.4013 8.33325 13.6888 8.33325Z" fill="black"/>
<path d="M9.80013 11.458H11.8835C12.1709 11.458 12.4043 11.6914 12.4043 11.9789V15.1039C12.4043 15.3914 12.1709 15.6247 11.8835 15.6247H9.80013C9.51263 15.6247 9.27928 15.3914 9.27928 15.1039V11.9789C9.27933 11.6914 9.51263 11.458 9.80013 11.458Z" fill="black"/>
<path d="M17.5784 5.22266H19.6618C19.9493 5.22266 20.1826 5.45601 20.1826 5.74351V15.1185C20.1826 15.406 19.9493 15.6394 19.6618 15.6394H17.5784C17.2909 15.6394 17.0576 15.406 17.0576 15.1185V5.74351C17.0576 5.45601 17.2909 5.22266 17.5784 5.22266Z" fill="black"/>
<path d="M0.362137 23.2219L6.57974 17.0042C5.10891 15.2083 4.22352 12.9146 4.22352 10.4167C4.22352 4.6729 8.89637 0 14.6401 0C20.3837 0 25.0566 4.6729 25.0566 10.4167C25.0566 16.1604 20.3838 20.8333 14.6401 20.8333C12.1422 20.8333 9.84851 19.9479 8.05268 18.4771L1.83502 24.6948C1.6319 24.8979 1.36525 25 1.09855 25C0.831858 25 0.56521 24.8979 0.362088 24.6948C-0.0451832 24.2875 -0.0451829 23.6292 0.362137 23.2219ZM14.6401 18.75C19.2348 18.75 22.9734 15.0115 22.9734 10.4167C22.9734 5.82183 19.2348 2.0833 14.6401 2.0833C10.0454 2.0833 6.30685 5.82187 6.30685 10.4167C6.30685 15.0114 10.0453 18.75 14.6401 18.75Z" fill="black"/>
</svg>
