<svg width="35" height="32" viewBox="0 0 35 32" fill="none" xmlns="http://www.w3.org/2000/svg">
<path d="M32.3856 5.21433H21.7415L18.8432 0.481749C18.6599 0.182454 18.3343 0 17.9833 0H9.96746C8.54904 0 7.39502 1.15402 7.39502 2.57251V6.97655V22.3839C7.39502 23.8024 8.54904 24.9564 9.96746 24.9564H27.5631H32.3856C33.8041 24.9564 34.9581 23.8024 34.9581 22.3839V7.7869C34.9581 6.36835 33.8041 5.21433 32.3856 5.21433Z" fill="white"/>
<path d="M5.37816 22.3842V6.97681H2.57251C1.15402 6.97681 0 8.13082 0 9.54931V29.3606C0 30.7791 1.15402 31.9331 2.57251 31.9331H24.9906C26.4091 31.9331 27.5631 30.7791 27.5631 29.3606V26.9734H9.96741C7.43692 26.9735 5.37816 24.9147 5.37816 22.3842Z" fill="white"/>
</svg>
