<svg width="32" height="32" viewBox="0 0 32 32" fill="none" xmlns="http://www.w3.org/2000/svg">
<path d="M31.2471 12.3564L28.7876 11.8218C28.5737 11.167 28.3088 10.5283 27.9961 9.91309L29.3577 7.79517C29.6008 7.41675 29.5474 6.91992 29.2295 6.60205L25.3979 2.77051C25.0801 2.45264 24.5833 2.39917 24.2048 2.64233L22.0869 4.00391C21.4717 3.69116 20.833 3.42627 20.1782 3.2124L19.6436 0.75293C19.5481 0.313477 19.1589 0 18.7092 0H13.2908C12.8411 0 12.4519 0.313477 12.3564 0.75293L11.8218 3.2124C11.167 3.42627 10.5283 3.69116 9.91309 4.00391L7.79517 2.64233C7.41675 2.39917 6.91992 2.45264 6.60205 2.77051L2.77051 6.60205C2.45264 6.91992 2.39917 7.41675 2.64233 7.79517L4.00391 9.91309C3.69116 10.5283 3.42627 11.167 3.2124 11.8218L0.75293 12.3564C0.313477 12.4521 0 12.8411 0 13.2908V18.7092C0 19.1589 0.313477 19.5479 0.75293 19.6436L3.2124 20.1782C3.42627 20.833 3.69116 21.4717 4.00391 22.0869L2.64233 24.2048C2.39917 24.5833 2.45264 25.0801 2.77051 25.3979L6.60205 29.2295C6.91992 29.5474 7.41675 29.6008 7.79517 29.3577L9.91309 27.9961C10.5283 28.3088 11.167 28.5737 11.8218 28.7876L12.3564 31.2471C12.4519 31.6865 12.8411 32 13.2908 32H18.7092C19.1589 32 19.5481 31.6865 19.6436 31.2471L20.1782 28.7876C20.833 28.5737 21.4717 28.3088 22.0869 27.9961L24.2048 29.3577C24.5833 29.6008 25.0801 29.5476 25.3979 29.2295L29.2295 25.3979C29.5474 25.0801 29.6008 24.5833 29.3577 24.2048L27.9961 22.0869C28.3088 21.4717 28.5737 20.833 28.7876 20.1782L31.2471 19.6436C31.6865 19.5479 32 19.1589 32 18.7092V13.2908C32 12.8411 31.6865 12.4521 31.2471 12.3564ZM21.7371 16C21.7371 19.1633 19.1633 21.7371 16 21.7371C12.8367 21.7371 10.2629 19.1633 10.2629 16C10.2629 12.8367 12.8367 10.2629 16 10.2629C19.1633 10.2629 21.7371 12.8367 21.7371 16Z" fill="white"/>
</svg>
