<svg width="25" height="25" viewBox="0 0 25 25" fill="none" xmlns="http://www.w3.org/2000/svg">
<g clip-path="url(#clip0)">
<path d="M3.90641 5.72917C3.33141 5.72917 2.86475 5.2625 2.86475 4.6875V1.04167C2.86475 0.466667 3.33141 0 3.90641 0C4.48141 0 4.94808 0.466667 4.94808 1.04167V4.6875C4.94808 5.2625 4.48141 5.72917 3.90641 5.72917Z" fill="black"/>
<path d="M8.85417 5.72917C8.27917 5.72917 7.8125 5.2625 7.8125 4.6875V1.04167C7.8125 0.466667 8.27917 0 8.85417 0C9.42917 0 9.89583 0.466667 9.89583 1.04167V4.6875C9.89583 5.2625 9.42917 5.72917 8.85417 5.72917Z" fill="black"/>
<path d="M13.8019 5.72917C13.2269 5.72917 12.7603 5.2625 12.7603 4.6875V1.04167C12.7603 0.466667 13.2269 0 13.8019 0C14.3769 0 14.8436 0.466667 14.8436 1.04167V4.6875C14.8436 5.2625 14.3769 5.72917 13.8019 5.72917Z" fill="black"/>
<path d="M14.8438 2.34375H2.86458C1.28125 2.34375 0 3.625 0 5.20833V19.0104C0 20.5938 1.28125 21.875 2.86458 21.875H11.3438C10.4271 20.625 9.89584 19.1042 9.89584 17.4479C9.89584 16.0208 10.2917 14.6875 11 13.5417H4.16667C3.59375 13.5417 3.125 13.0729 3.125 12.5C3.125 11.9271 3.59375 11.4583 4.16667 11.4583H11.4583C11.8125 11.4583 12.125 11.6354 12.3229 11.9063C13.6771 10.6563 15.4688 9.89583 17.4479 9.89583C17.5313 9.89583 17.625 9.89584 17.7083 9.90625V5.20833C17.7083 3.625 16.4271 2.34375 14.8438 2.34375ZM8.33333 9.375H4.16667C3.59375 9.375 3.125 8.90625 3.125 8.33333C3.125 7.76042 3.59375 7.29167 4.16667 7.29167H8.33333C8.90625 7.29167 9.375 7.76042 9.375 8.33333C9.375 8.90625 8.90625 9.375 8.33333 9.375Z" fill="black"/>
<path d="M17.4478 22.9168C14.4321 22.9168 11.979 20.4636 11.979 17.448C11.979 14.4324 14.4321 11.9792 17.4478 11.9792C20.4634 11.9792 22.9165 14.4324 22.9165 17.448C22.9165 20.4636 20.4634 22.9168 17.4478 22.9168ZM17.4478 14.0626C15.5811 14.0626 14.0623 15.5813 14.0623 17.448C14.0623 19.3147 15.5811 20.8334 17.4478 20.8334C19.3144 20.8334 20.8332 19.3147 20.8332 17.448C20.8332 15.5813 19.3144 14.0626 17.4478 14.0626Z" fill="black"/>
<path d="M23.9586 25C23.6919 25 23.4253 24.8979 23.2221 24.6948L19.8367 21.3094C19.4294 20.9021 19.4294 20.2438 19.8367 19.8365C20.244 19.4292 20.9023 19.4292 21.3096 19.8365L24.6951 23.2219C25.1023 23.6292 25.1023 24.2875 24.6951 24.6948C24.4919 24.8979 24.2253 25 23.9586 25Z" fill="black"/>
</g>
<defs>
<clipPath id="clip0">
<rect width="25" height="25" fill="white"/>
</clipPath>
</defs>
</svg>
