<svg width="30" height="30" viewBox="0 0 30 30" fill="none" xmlns="http://www.w3.org/2000/svg">
<g clip-path="url(#clip0)">
<path d="M18.5264 5.03882L2.01995 21.5464C1.93691 21.6297 1.87695 21.7349 1.84839 21.8479L0.0188128 29.1915C-0.0359152 29.4125 0.0290446 29.6476 0.190373 29.8089C0.31244 29.931 0.478766 29.9986 0.648898 29.9986C0.701009 29.9986 0.754309 29.9921 0.806182 29.9791L8.14972 28.1492C8.26418 28.1207 8.36816 28.061 8.4512 27.9779L24.9591 11.4715L18.5264 5.03882Z" fill="white"/>
<path d="M29.0487 2.78805L27.2112 0.950619C25.9832 -0.277429 23.8428 -0.276239 22.6162 0.950619L20.3655 3.20137L26.7979 9.6338L29.0487 7.38306C29.6621 6.76987 30 5.95371 30 5.08567C30 4.21764 29.6621 3.40148 29.0487 2.78805Z" fill="white"/>
</g>
<defs>
<clipPath id="clip0">
<rect width="30" height="30" fill="white"/>
</clipPath>
</defs>
</svg>
