<svg width="39" height="39" viewBox="0 0 39 39" fill="none" xmlns="http://www.w3.org/2000/svg">
<path d="M31.1955 19.7974C30.9736 19.5016 30.554 19.4416 30.2581 19.6635C30.116 19.7701 30.022 19.9288 29.997 20.1047L29.6254 22.7093C29.6164 22.7427 29.6047 22.7754 29.5906 22.807C30.2734 21.9003 30.8246 20.9014 31.2276 19.8403L31.1955 19.7974Z" fill="white"/>
<path fill-rule="evenodd" clip-rule="evenodd" d="M28.8674 23.2777C28.8987 23.2817 28.9303 23.2837 28.9618 23.2837C29.0293 23.2823 29.1135 23.4045 29.0693 23.4555C28.3233 24.3165 27.4593 25.0687 26.5026 25.6894C25.3638 26.4006 24.6649 27.6423 24.6479 28.9849V31.635C24.6479 32.7443 23.7486 33.6436 22.6393 33.6436H17.2829C16.1736 33.6436 15.2743 32.7443 15.2743 31.635V28.9293C15.2582 27.6175 14.5734 26.4048 13.4585 25.7135C10.4046 23.7588 8.39309 20.5329 7.98174 16.9303C7.22666 10.3172 11.9754 4.3441 18.5885 3.58902C19.0437 3.54238 19.501 3.52129 19.9582 3.52572C20.1184 3.52728 20.1809 3.728 20.0528 3.82403C19.757 4.0459 19.697 4.46554 19.9189 4.7614L21.4957 6.86511C21.6621 7.08045 21.6781 7.37623 21.5359 7.60831C21.399 7.84181 21.1342 7.96919 20.8663 7.93036L18.2618 7.55809L18.261 7.55801C17.895 7.50587 17.5559 7.76046 17.5039 8.12654L16.9354 12.103L16.9353 12.1037C16.8832 12.4698 17.1378 12.8088 17.5039 12.8609L20.1084 13.2332C20.2843 13.2582 20.443 13.3522 20.5496 13.4943C20.7715 13.7901 20.7116 14.2098 20.4157 14.4317L18.3113 16.0098C18.0155 16.2316 17.9556 16.6513 18.1774 16.9471L20.5878 20.161C20.8097 20.4568 21.2293 20.5167 21.5252 20.2949L23.6302 18.7168C23.7719 18.6108 23.9498 18.5653 24.125 18.59C24.4912 18.6418 24.7459 18.9806 24.6941 19.3468L24.3225 21.9512C24.3225 21.9513 24.3225 21.9514 24.3225 21.9514C24.3225 21.9515 24.3225 21.9515 24.3225 21.9516C24.2701 22.3176 24.5243 22.6568 24.8903 22.7093L28.8674 23.2777Z" fill="white"/>
<path d="M17.283 36.9912V37.6608C17.283 38.4004 17.8825 38.9999 18.6221 38.9999H21.3002C22.0398 38.9999 22.6393 38.4004 22.6393 37.6608V36.9912H17.283Z" fill="white"/>
<path d="M22.6396 34.313H17.2832V36.1462H22.6396V34.313Z" fill="white"/>
<path d="M36.6791 11.5425C35.5809 11.3855 34.818 10.3679 34.975 9.26971C35.0504 8.74236 35.3322 8.26656 35.7584 7.94702L36.5275 7.37C36.9692 7.03859 37.0586 6.41189 36.7273 5.97012L36.3202 5.42736C35.9889 4.98555 35.3621 4.89599 34.9203 5.22731L34.1515 5.8038C33.2642 6.46967 32.0051 6.29006 31.3394 5.40283C31.0201 4.97733 30.8826 4.44245 30.9571 3.91568L31.093 2.964C31.171 2.41725 30.7911 1.91074 30.2443 1.83271L29.5735 1.73698C29.0268 1.65895 28.5203 2.0389 28.4423 2.58562L28.3064 3.53739C28.1493 4.63553 27.1318 5.39848 26.0336 5.24147C25.5063 5.16606 25.0305 4.88426 24.7109 4.45801L24.1337 3.68745C23.8025 3.24523 23.1754 3.15544 22.7334 3.48696L22.1913 3.89354C21.7495 4.2249 21.6599 4.85166 21.9912 5.29349L22.5677 6.06225C23.2334 6.94965 23.0537 8.20865 22.1663 8.87443C21.7399 9.1943 21.2039 9.33156 20.6762 9.25599L19.7239 9.12002C19.1774 9.04201 18.671 9.42157 18.5927 9.96801L18.4963 10.6397C18.4179 11.1866 18.7979 11.6935 19.3449 11.7716L20.2959 11.9074C21.3941 12.0645 22.157 13.082 22 14.1802C21.9246 14.7075 21.6428 15.1833 21.2166 15.5029L20.4479 16.0798C20.0063 16.4113 19.917 17.0379 20.2482 17.4796L20.6554 18.0225C20.9868 18.4643 21.6136 18.5539 22.0554 18.2226L22.8241 17.6461C23.7115 16.9804 24.9705 17.1601 25.6363 18.0475C25.9562 18.4739 26.0935 19.0099 26.0179 19.5375L25.882 20.4896C25.8039 21.0362 26.1837 21.5426 26.7302 21.6209L27.4072 21.7178C27.954 21.7961 28.4608 21.4161 28.5388 20.8692L28.6746 19.9178C28.8317 18.8197 29.8493 18.0568 30.9474 18.2138C31.4748 18.2892 31.9506 18.571 32.2701 18.9972L32.8471 19.7659C33.1785 20.2074 33.8051 20.2968 34.2468 19.9655L34.7891 19.5588C35.2312 19.2273 35.3205 18.6 34.9887 18.1582L34.4093 17.387C33.7439 16.4994 33.9239 15.2404 34.8115 14.5749C35.237 14.2559 35.7716 14.1187 36.2981 14.1932L37.2498 14.3291C37.7965 14.4071 38.303 14.0272 38.3811 13.4804L38.4768 12.8094C38.5548 12.2628 38.175 11.7563 37.6284 11.6782L36.6791 11.5425ZM28.4885 15.7426C26.2698 15.7426 24.4712 13.944 24.4712 11.7253C24.4712 9.50656 26.2698 7.70799 28.4885 7.70799C30.7072 7.70799 32.5058 9.50656 32.5058 11.7253C32.5032 13.9429 30.7061 15.74 28.4885 15.7426Z" fill="white"/>
</svg>
