<svg width="21" height="22" viewBox="0 0 21 22" fill="none" xmlns="http://www.w3.org/2000/svg">
<path d="M19.3766 1.6205C17.2148 -0.540166 13.6983 -0.540166 11.5365 1.6205L6.96567 6.19129L12.1551 11.3807C13.2232 10.4913 14.5773 9.9344 16.0725 9.9344C16.9301 9.9344 17.7462 10.1126 18.4888 10.4307L19.3766 9.46072C21.5379 7.29944 21.5379 3.78239 19.3766 1.6205Z" fill="black"/>
<path d="M11.2912 12.2589L6.0945 7.06228L1.62093 11.5402C-0.540309 13.7015 -0.540309 17.2186 1.62093 19.3804C3.78274 21.541 7.34027 21.5822 9.50217 19.4214L10.409 18.5102C10.0909 17.7676 9.91278 16.9515 9.91278 16.0939C9.91282 14.6371 10.4425 13.3147 11.2912 12.2589Z" fill="black"/>
<path d="M11.1449 16.094C11.1449 18.6044 13.0291 20.6532 15.4565 20.9595V11.2284C13.0291 11.5347 11.1449 13.5834 11.1449 16.094Z" fill="black"/>
<path d="M16.6883 11.2284V20.9595C19.1157 20.6532 21 18.6044 21 16.0939C21 13.5835 19.1158 11.5347 16.6883 11.2284Z" fill="black"/>
</svg>
