<svg width="33" height="22" viewBox="0 0 33 22" fill="none" xmlns="http://www.w3.org/2000/svg">
<path d="M16.5033 10.0491C19.2783 10.0491 21.5278 7.7995 21.5278 5.02453C21.5278 2.24956 19.2783 0 16.5033 0C13.7283 0 11.4788 2.24956 11.4788 5.02453C11.4788 7.7995 13.7283 10.0491 16.5033 10.0491Z" fill="black"/>
<path d="M26.5522 12.9151C28.5338 12.9151 30.1402 11.3087 30.1402 9.32712C30.1402 7.34553 28.5338 5.73914 26.5522 5.73914C24.5706 5.73914 22.9642 7.34553 22.9642 9.32712C22.9642 11.3087 24.5706 12.9151 26.5522 12.9151Z" fill="black"/>
<path d="M6.56235 12.9151C8.54394 12.9151 10.1503 11.3087 10.1503 9.32712C10.1503 7.34553 8.54394 5.73914 6.56235 5.73914C4.58076 5.73914 2.97437 7.34553 2.97437 9.32712C2.97437 11.3087 4.58076 12.9151 6.56235 12.9151Z" fill="black"/>
<path d="M16.5036 11.4855C11.3576 11.4855 7.17615 15.6737 7.17615 20.8129C7.17615 21.2108 7.49988 21.5278 7.89105 21.5278H25.1161C25.514 21.5278 25.831 21.2041 25.831 20.8129C25.8377 15.667 21.6495 11.4855 16.5036 11.4855Z" fill="black"/>
<path d="M7.79645 14.5068C7.35807 14.4124 6.91294 14.3517 6.45433 14.3517C2.90006 14.3517 0 17.2517 0 20.8128C0 21.2107 0.323728 21.5277 0.714899 21.5277H5.86757C5.78664 21.3051 5.73269 21.0623 5.73269 20.8128C5.73943 18.459 6.50828 16.2806 7.79645 14.5068Z" fill="black"/>
<path d="M26.5523 14.3517C26.1005 14.3517 25.6553 14.4124 25.2102 14.5068C26.4984 16.2806 27.2672 18.4522 27.2672 20.8128C27.2672 21.0623 27.2133 21.3051 27.1323 21.5277H32.285C32.6829 21.5277 32.9999 21.2039 32.9999 20.8128C33.0134 17.2517 30.1133 14.3517 26.5523 14.3517Z" fill="black"/>
</svg>
