<svg width="23" height="25" viewBox="0 0 23 25" fill="none" xmlns="http://www.w3.org/2000/svg">
<path d="M5.88179 22.1651H2.712C2.32852 22.1651 2.10082 21.9386 1.99895 21.8064C1.81919 21.5737 1.75328 21.2779 1.80721 20.9822C2.73597 16.2951 6.67273 12.8725 11.2207 12.7655C11.2986 12.7655 11.3705 12.7718 11.4484 12.7718C11.5263 12.7718 11.6042 12.7718 11.6761 12.7655C12.7906 12.7907 13.8752 13.0109 14.9058 13.4198C15.3672 13.6023 15.8825 13.3569 16.0562 12.8725C16.23 12.388 15.9963 11.8469 15.5349 11.6645C15.3851 11.6079 15.2353 11.5512 15.0855 11.5009C16.5656 10.337 17.5243 8.47469 17.5243 6.3859C17.5243 2.86265 14.7979 0 11.4424 0C8.08685 0 5.36647 2.85635 5.36647 6.37961C5.36647 8.4684 6.3252 10.3307 7.81122 11.4946C6.45103 11.9665 5.18072 12.6963 4.06021 13.6589C2.01693 15.4268 0.590827 17.8931 0.0575371 20.5985C-0.11024 21.4478 0.0934893 22.3161 0.608804 22.9892C1.12412 23.6561 1.8911 24.0399 2.712 24.0399H5.88179C6.37313 24.0399 6.7746 23.6184 6.7746 23.1025C6.7746 22.5866 6.37313 22.1651 5.88179 22.1651ZM7.15809 6.37961C7.15809 3.89446 9.08153 1.86858 11.4544 1.86858C13.8272 1.86858 15.7507 3.88816 15.7507 6.37961C15.7507 8.78926 13.9351 10.7711 11.6641 10.8843C11.5922 10.8843 11.5263 10.8843 11.4544 10.8843C11.3825 10.8843 11.3166 10.8843 11.2447 10.8843C8.96768 10.7711 7.15809 8.79556 7.15809 6.37961Z" fill="black"/>
<path d="M22.2162 16.1821C21.8327 15.2824 20.9698 14.6973 20.0171 14.6973H17.2248H17.2188C16.2121 14.6973 15.3313 15.3201 14.9838 16.2827C14.9358 16.4086 14.8819 16.5721 14.822 16.7609H8.96179C8.72211 16.7609 8.48842 16.8616 8.32065 17.044L6.78669 18.705C6.45113 19.0699 6.45113 19.655 6.79268 20.0199L8.35061 21.6934C8.51838 21.8759 8.74608 21.9766 8.98576 21.9766H11.8919C12.3832 21.9766 12.7847 21.555 12.7847 21.0391C12.7847 20.5232 12.3832 20.1017 11.8919 20.1017H9.36326L8.67418 19.3656L9.33929 18.6483H15.4871C15.9006 18.6483 16.2601 18.3526 16.356 17.9311C16.4279 17.6228 16.5177 17.3208 16.6496 16.9622C16.7335 16.7231 16.9552 16.5784 17.2188 16.5784H20.0111C20.2628 16.5784 20.4845 16.7231 20.5803 16.9496C20.82 17.5159 21.1076 18.3841 21.1076 19.3467C21.1076 20.3093 20.826 21.2027 20.5803 21.7815C20.4845 22.0143 20.2628 22.1653 20.0171 22.1653H17.1948C16.9492 22.1653 16.7155 21.9954 16.6196 21.7501C16.5177 21.4858 16.4219 21.1775 16.344 20.8189C16.2301 20.3156 15.7448 20.001 15.2654 20.1269C14.786 20.2464 14.4864 20.756 14.6063 21.2593C14.7081 21.7123 14.828 22.1087 14.9718 22.4673C15.3493 23.4236 16.2241 24.0402 17.2008 24.0465H20.0231H20.0291C20.9818 24.0465 21.8447 23.4551 22.2281 22.5365C22.5397 21.7941 22.9052 20.6365 22.9052 19.3467C22.8992 18.0507 22.5277 16.9119 22.2162 16.1821Z" fill="black"/>
<path d="M19.28 20.2838C19.7731 20.2838 20.1728 19.8641 20.1728 19.3464C20.1728 18.8286 19.7731 18.4089 19.28 18.4089C18.7869 18.4089 18.3872 18.8286 18.3872 19.3464C18.3872 19.8641 18.7869 20.2838 19.28 20.2838Z" fill="black"/>
</svg>
