<svg width="24" height="17" viewBox="0 0 24 17" fill="none" xmlns="http://www.w3.org/2000/svg">
<g clip-path="url(#clip0)">
<path d="M16.3141 9.51582L14.635 13.0132C14.5082 13.2765 14.3097 13.4988 14.0621 13.6545C13.8145 13.8103 13.5279 13.8932 13.2353 13.8937H10.5647C10.2721 13.8932 9.98549 13.8103 9.7379 13.6545C9.49032 13.4988 9.29175 13.2765 9.16501 13.0132L7.48595 9.51582C7.35862 9.25259 7.15946 9.03057 6.91137 8.8753C6.66329 8.72003 6.37634 8.6378 6.08353 8.63806H1.55307C1.14117 8.63806 0.746139 8.80141 0.454883 9.09217C0.163626 9.38293 0 9.77729 0 10.1885L0 15.4495C0 15.8607 0.163626 16.2551 0.454883 16.5459C0.746139 16.8366 1.14117 17 1.55307 17H22.2469C22.6588 17 23.0539 16.8366 23.3451 16.5459C23.6364 16.2551 23.8 15.8607 23.8 15.4495V10.1885C23.8 9.77729 23.6364 9.38293 23.3451 9.09217C23.0539 8.80141 22.6588 8.63806 22.2469 8.63806H17.7137C17.4213 8.63799 17.1348 8.72033 16.8872 8.87561C16.6396 9.03089 16.4409 9.2528 16.3141 9.51582Z" fill="#231815"/>
<path d="M12.2247 0H8.95417C8.74833 -1.27385e-06 8.55088 0.0814413 8.40508 0.226488C8.25927 0.371534 8.17699 0.568358 8.17627 0.773846V8.43027C8.17694 8.54575 8.20312 8.65966 8.25296 8.76387L9.98955 12.3761C10.0518 12.5074 10.1498 12.6186 10.2723 12.6969C10.3949 12.7753 10.537 12.8176 10.6825 12.819H13.1039C13.2504 12.8187 13.3938 12.7773 13.5178 12.6994C13.6418 12.6216 13.7414 12.5105 13.8051 12.3788L15.539 8.76661C15.5891 8.66261 15.6144 8.54842 15.6129 8.43301V0.77658C15.6136 0.572284 15.5334 0.375986 15.3898 0.230505C15.2461 0.0850241 15.0506 0.00216438 14.846 0L12.2247 0Z" fill="#231815"/>
</g>
<defs>
<clipPath id="clip0">
<rect width="23.8" height="17" fill="white"/>
</clipPath>
</defs>
</svg>
