<svg width="36" height="38" viewBox="0 0 36 38" fill="none" xmlns="http://www.w3.org/2000/svg">
<path d="M35.5102 22.4699L33.3002 22.0799C33.2102 21.8299 33.1102 21.5799 33.0002 21.3299L34.3502 19.4499C34.5002 19.2399 34.4802 18.9499 34.2902 18.7599L31.2402 15.7099C31.0602 15.5299 30.7702 15.4999 30.5602 15.6499L28.7202 16.9299C28.4802 16.8099 28.2302 16.7099 27.9802 16.6099L27.6002 14.3199C27.5602 14.0599 27.3402 13.8799 27.0802 13.8799H22.7702C22.5102 13.8799 22.2902 14.0599 22.2502 14.3199L21.8602 16.5299C21.6102 16.6199 21.3602 16.7199 21.1102 16.8299L19.2302 15.4799C19.0202 15.3299 18.7302 15.3499 18.5402 15.5299L15.4902 18.5799C15.3102 18.7599 15.2802 19.0499 15.4302 19.2599L16.7102 21.0999C16.5902 21.3399 16.4902 21.5899 16.3902 21.8399L14.1102 22.2199C13.8502 22.2599 13.6602 22.4799 13.6602 22.7399V27.0499C13.6602 27.3099 13.8402 27.5299 14.1002 27.5699L16.3002 27.9599C16.3902 28.2299 16.4902 28.4799 16.5902 28.7299L15.2602 30.5899C15.1102 30.7999 15.1302 31.0899 15.3202 31.2699L18.3702 34.3199C18.5502 34.4999 18.8302 34.5299 19.0502 34.3799L20.8902 33.0999C21.1302 33.2199 21.3802 33.3199 21.6302 33.4199L22.0102 35.7099C22.0502 35.9699 22.2702 36.1499 22.5302 36.1499H26.8402C27.1002 36.1499 27.3202 35.9699 27.3602 35.7099L27.7502 33.4999C28.0002 33.4099 28.2502 33.3099 28.5002 33.1999L30.3802 34.5399C30.5902 34.6999 30.8902 34.6799 31.0702 34.4899L34.1202 31.4399C34.3002 31.2599 34.3302 30.9699 34.1802 30.7599L32.9002 28.9199C33.0202 28.6799 33.1202 28.4299 33.2202 28.1799L35.5002 27.7999C35.7602 27.7599 35.9502 27.5399 35.9502 27.2799V22.9699C35.9502 22.7399 35.7702 22.5199 35.5102 22.4699ZM31.2102 26.2999L31.0802 26.7699C30.9202 27.3499 30.6902 27.8899 30.3902 28.3899L30.1502 28.7799C30.0402 28.9599 30.0502 29.1899 30.1702 29.3599L31.2202 30.8599L30.5002 31.5799L28.9902 30.4999C28.8202 30.3799 28.6002 30.3599 28.4102 30.4699L28.0202 30.6899C27.5002 30.9799 26.9502 31.1999 26.3902 31.3399L25.9402 31.4499C25.7302 31.4999 25.5802 31.6699 25.5402 31.8699L25.2202 33.6799H24.2002L23.9702 32.3099L23.8602 31.8099C23.8202 31.6199 23.6702 31.4599 23.4802 31.4099L23.0702 31.2999C22.5002 31.1399 21.9502 30.9099 21.4602 30.6099L21.0702 30.3699C20.8902 30.2599 20.6602 30.2599 20.4902 30.3899L18.9902 31.4399L18.2702 30.7199L19.3402 29.2299C19.4602 29.0599 19.4702 28.8399 19.3702 28.6599L19.1502 28.2699C18.8802 27.7999 18.6702 27.2399 18.5102 26.6099L18.4002 26.1699C18.3502 25.9599 18.1802 25.7999 17.9802 25.7699L16.1802 25.4499V24.4299L18.0302 24.1099C18.2302 24.0699 18.3902 23.9199 18.4402 23.7299L18.5602 23.2999C18.7202 22.7299 18.9502 22.1799 19.2502 21.6899L19.4902 21.2999C19.6002 21.1199 19.5902 20.8899 19.4702 20.7199L18.4202 19.2199L19.1402 18.4999L20.6502 19.5899C20.8202 19.7099 21.0402 19.7199 21.2202 19.6199L21.6202 19.3899C22.1402 19.0999 22.6902 18.8799 23.2502 18.7399L23.7002 18.6299C23.9002 18.5799 24.0602 18.4099 24.0902 18.2099L24.4102 16.4099H25.4302L25.7402 18.2499C25.7702 18.4499 25.9202 18.6199 26.1202 18.6799L26.5502 18.7999C27.1302 18.9599 27.6702 19.1899 28.1702 19.4899L28.5802 19.7399C28.7602 19.8399 28.9902 19.8299 29.1502 19.7099L30.6502 18.6599L31.3702 19.3799L30.2802 20.8799C30.1602 21.0499 30.1402 21.2799 30.2502 21.4599L30.4802 21.8599C30.7702 22.3799 30.9902 22.9299 31.1302 23.4899L31.2402 23.9299C31.2902 24.1399 31.4602 24.2999 31.6602 24.3299L33.4602 24.6499V25.6699L32.1902 25.8799L31.6702 25.9299C31.4502 25.9399 31.2702 26.0899 31.2102 26.2999Z" fill="white"/>
<path d="M24.82 19.9199C22 19.9199 19.71 22.2099 19.71 25.0299C19.71 27.8499 22 30.1399 24.82 30.1399C27.64 30.1399 29.93 27.8499 29.93 25.0299C29.93 22.2099 27.64 19.9199 24.82 19.9199ZM27.45 25.0299C27.45 26.4799 26.27 27.6599 24.82 27.6599C23.37 27.6599 22.19 26.4799 22.19 25.0299C22.19 23.5799 23.37 22.3999 24.82 22.3999C26.27 22.3999 27.45 23.5799 27.45 25.0299Z" fill="white"/>
<path d="M15.65 34.62H2.48V2.48H22.11V9.29C22.11 9.58 22.35 9.82 22.64 9.82H29.45V13.75C29.45 14.43 30.01 14.99 30.69 14.99C31.37 14.99 31.93 14.43 31.93 13.75V8.29C31.93 8.15 31.88 8.02 31.78 7.91L31.58 7.71C31.58 7.71 31.58 7.71 31.57 7.7L24.03 0.16C23.93 0.06 23.79 0 23.65 0H0.53C0.24 0 0 0.24 0 0.53V36.57C0 36.86 0.24 37.1 0.53 37.1H15.65C16.33 37.1 16.89 36.54 16.89 35.86C16.89 35.18 16.33 34.62 15.65 34.62ZM24.59 7.34V4.24L27.69 7.35H24.59V7.34Z" fill="white"/>
<path d="M14.62 15.3599V5.41989C14.62 5.12989 14.38 4.88989 14.09 4.88989H4.79C4.49 4.88989 4.25 5.12989 4.25 5.41989V15.3599C4.25 15.6499 4.49 15.8899 4.78 15.8899H14.09C14.38 15.8899 14.62 15.6599 14.62 15.3599ZM6.74 13.4099V7.36989H12.14V13.4099H6.74Z" fill="white"/>
<path d="M10.5698 19.01H6.2198C5.4398 19.01 4.7998 19.65 4.7998 20.43C4.7998 21.21 5.4398 21.85 6.2198 21.85H10.5698C11.3498 21.85 11.9898 21.21 11.9898 20.43C11.9898 19.64 11.3498 19.01 10.5698 19.01Z" fill="white"/>
<path d="M10.5698 23.3601H6.2198C5.4398 23.3601 4.7998 24.0001 4.7998 24.7801C4.7998 25.5601 5.4398 26.2001 6.2198 26.2001H10.5698C11.3498 26.2001 11.9898 25.5601 11.9898 24.7801C11.9898 23.9901 11.3498 23.3601 10.5698 23.3601Z" fill="white"/>
<path d="M10.5698 27.71H6.2198C5.4398 27.71 4.7998 28.35 4.7998 29.13C4.7998 29.91 5.4398 30.55 6.2198 30.55H10.5698C11.3498 30.55 11.9898 29.91 11.9898 29.13C11.9898 28.34 11.3498 27.71 10.5698 27.71Z" fill="white"/>
</svg>
