<svg width="26" height="24" viewBox="0 0 26 24" fill="none" xmlns="http://www.w3.org/2000/svg">
<path d="M11.6438 18.4279C11.6436 16.8 12.1039 15.2058 12.9707 13.8317C13.8375 12.4577 15.075 11.3607 16.5384 10.6692C18.0018 9.9777 19.6305 9.72024 21.2339 9.92697C22.8372 10.1337 24.349 10.7961 25.5922 11.8365V4.97921C25.5924 4.64684 25.5276 4.31769 25.4015 4.01056C25.2753 3.70342 25.0903 3.42433 24.857 3.18923C24.6237 2.95413 24.3467 2.76763 24.0418 2.64039C23.7369 2.51314 23.4101 2.44765 23.0801 2.44765H13.9395C13.3264 2.44804 12.7344 2.22262 12.2749 1.81387L10.9488 0.633782C10.49 0.225149 9.89848 -0.000283029 9.28594 2.66685e-07H2.51206C1.84596 0.000473155 1.20729 0.267154 0.736284 0.741475C0.265283 1.2158 0.000469578 1.85898 0 2.52977L0 17.9583C-1.65712e-07 18.6294 0.264606 19.2731 0.735658 19.7478C1.20671 20.2225 1.84566 20.4894 2.51206 20.4899H11.8937C11.7282 19.8152 11.6443 19.1229 11.6438 18.4279Z" fill="black"/>
<path d="M25.5725 19.3758L24.5336 18.7724C24.6382 18.2024 24.6382 17.6178 24.5336 17.0478L25.5725 16.4444C25.63 16.4104 25.6746 16.358 25.699 16.2955C25.7234 16.233 25.7263 16.1641 25.7072 16.0998C25.438 15.2364 24.9821 14.4437 24.3723 13.7789C24.3275 13.7316 24.2685 13.7005 24.2044 13.6905C24.1403 13.6805 24.0746 13.6921 24.0178 13.7236L22.9789 14.327C22.5424 13.9492 22.0398 13.6568 21.4968 13.4647V12.256C21.4967 12.1888 21.4738 12.1237 21.4319 12.0714C21.39 12.0191 21.3316 11.9829 21.2664 11.9686C20.3907 11.7719 19.4828 11.7719 18.6072 11.9686C18.542 11.9829 18.4835 12.0191 18.4416 12.0714C18.3997 12.1237 18.3768 12.1888 18.3767 12.256V13.4647C17.8346 13.6587 17.3323 13.951 16.8946 14.327L15.8575 13.7218C15.8007 13.6896 15.7348 13.6778 15.6704 13.6882C15.606 13.6985 15.547 13.7305 15.503 13.7789C14.8917 14.4426 14.4356 15.2356 14.1681 16.0998C14.148 16.1641 14.1504 16.2334 14.1749 16.2961C14.1995 16.3588 14.2446 16.4111 14.3028 16.4444L15.3417 17.0478C15.2371 17.6178 15.2371 18.2024 15.3417 18.7724L14.3028 19.3776C14.245 19.4108 14.2001 19.4628 14.1756 19.5252C14.1511 19.5875 14.1484 19.6563 14.1681 19.7204C14.4373 20.5838 14.8932 21.3765 15.503 22.0413C15.5475 22.0889 15.6065 22.1203 15.6706 22.1306C15.7347 22.1409 15.8005 22.1296 15.8575 22.0984L16.8964 21.4932C17.3332 21.8715 17.8365 22.164 18.3802 22.3555V23.5659C18.3806 23.6328 18.4033 23.6976 18.4449 23.7498C18.4864 23.8019 18.5442 23.8385 18.6089 23.8534C19.4847 24.049 20.3924 24.049 21.2681 23.8534C21.3329 23.8385 21.3907 23.8019 21.4322 23.7498C21.4737 23.6976 21.4965 23.6328 21.4968 23.5659V22.3573C22.0391 22.1626 22.5419 21.8704 22.9807 21.495L24.0195 22.1002C24.0764 22.1323 24.1423 22.1442 24.2067 22.1338C24.2711 22.1235 24.3301 22.0915 24.3741 22.0431C24.9853 21.3794 25.4415 20.5864 25.709 19.7222C25.7274 19.6574 25.724 19.5882 25.6993 19.5256C25.6746 19.4629 25.63 19.4103 25.5725 19.3758ZM19.9279 19.8757C19.5422 19.8757 19.1652 19.7605 18.8445 19.5447C18.5238 19.329 18.2739 19.0222 18.1263 18.6634C17.9787 18.3046 17.94 17.9097 18.0153 17.5288C18.0905 17.1478 18.2763 16.7979 18.549 16.5232C18.8217 16.2486 19.1692 16.0616 19.5475 15.9858C19.9257 15.91 20.3178 15.9489 20.6742 16.0975C21.0305 16.2462 21.3351 16.4979 21.5493 16.8208C21.7636 17.1438 21.878 17.5235 21.878 17.9119C21.878 18.4327 21.6725 18.9322 21.3068 19.3005C20.9411 19.6688 20.4451 19.8757 19.9279 19.8757Z" fill="black"/>
</svg>
