<svg width="39" height="39" viewBox="0 0 39 39" fill="none" xmlns="http://www.w3.org/2000/svg">
<path d="M9.81602 35.23H4.52602C3.88602 35.23 3.50602 34.87 3.33602 34.66C3.03602 34.29 2.92602 33.82 3.01602 33.35C4.56602 25.9 11.136 20.46 18.726 20.29C18.856 20.29 18.976 20.3 19.106 20.3C19.236 20.3 19.366 20.3 19.486 20.29C21.346 20.33 23.156 20.68 24.876 21.33C25.646 21.62 26.506 21.23 26.796 20.46C27.086 19.69 26.696 18.83 25.926 18.54C25.676 18.45 25.426 18.36 25.176 18.28C27.646 16.43 29.246 13.47 29.246 10.15C29.246 4.55 24.696 0 19.096 0C13.496 0 8.95602 4.54 8.95602 10.14C8.95602 13.46 10.556 16.42 13.036 18.27C10.766 19.02 8.64602 20.18 6.77602 21.71C3.36602 24.52 0.986023 28.44 0.0960227 32.74C-0.183977 34.09 0.156023 35.47 1.01602 36.54C1.87602 37.6 3.15602 38.21 4.52602 38.21H9.81602C10.636 38.21 11.306 37.54 11.306 36.72C11.306 35.9 10.636 35.23 9.81602 35.23ZM11.946 10.14C11.946 6.19 15.156 2.97 19.116 2.97C23.076 2.97 26.286 6.18 26.286 10.14C26.286 13.97 23.256 17.12 19.466 17.3C19.346 17.3 19.236 17.3 19.116 17.3C18.996 17.3 18.886 17.3 18.766 17.3C14.966 17.12 11.946 13.98 11.946 10.14Z" fill="white"/>
<path d="M37.076 25.7201C36.436 24.2901 34.996 23.3601 33.406 23.3601H28.746H28.736C27.056 23.3601 25.586 24.3501 25.006 25.8801C24.926 26.0801 24.836 26.3401 24.736 26.6401H14.956C14.556 26.6401 14.166 26.8001 13.886 27.0901L11.326 29.7301C10.766 30.3101 10.766 31.2401 11.336 31.8201L13.936 34.4801C14.216 34.7701 14.596 34.9301 14.996 34.9301H19.846C20.666 34.9301 21.336 34.2601 21.336 33.4401C21.336 32.6201 20.666 31.9501 19.846 31.9501H15.626L14.476 30.7801L15.586 29.6401H25.846C26.536 29.6401 27.136 29.1701 27.296 28.5001C27.416 28.0101 27.566 27.5301 27.786 26.9601C27.926 26.5801 28.296 26.3501 28.736 26.3501H33.396C33.816 26.3501 34.186 26.5801 34.346 26.9401C34.746 27.8401 35.226 29.2201 35.226 30.7501C35.226 32.2801 34.756 33.7001 34.346 34.6201C34.186 34.9901 33.816 35.2301 33.406 35.2301H28.696C28.286 35.2301 27.896 34.9601 27.736 34.5701C27.566 34.1501 27.406 33.6601 27.276 33.0901C27.086 32.2901 26.276 31.7901 25.476 31.9901C24.676 32.1801 24.176 32.9901 24.376 33.7901C24.546 34.5101 24.746 35.1401 24.986 35.7101C25.616 37.2301 27.076 38.2101 28.706 38.2201H33.416H33.426C35.016 38.2201 36.456 37.2801 37.096 35.8201C37.616 34.6401 38.226 32.8001 38.226 30.7501C38.216 28.6901 37.596 26.8801 37.076 25.7201Z" fill="white"/>
<path d="M32.176 32.24C32.9989 32.24 33.666 31.5729 33.666 30.75C33.666 29.9271 32.9989 29.26 32.176 29.26C31.3531 29.26 30.686 29.9271 30.686 30.75C30.686 31.5729 31.3531 32.24 32.176 32.24Z" fill="white"/>
</svg>
