<svg width="19" height="31" viewBox="0 0 19 31" fill="none" xmlns="http://www.w3.org/2000/svg">
<path d="M10.7356 21.8443L9.75455 25.1349C9.26304 26.7831 7.52201 27.7247 5.87375 27.2332C4.22549 26.7417 3.28589 25.0006 3.77741 23.3524L5.74939 16.7455C6.20538 15.2177 7.73322 14.2978 9.26501 14.5623C9.38542 14.5841 9.50781 14.6117 9.62822 14.6472C10.3625 14.8663 11.1047 14.4755 11.3199 13.755L11.9378 11.6843C11.5351 11.4691 11.1107 11.2935 10.6685 11.1612C10.0447 10.9757 9.41503 10.8829 8.79324 10.8789C6.36132 10.8572 4.0735 12.162 2.85754 14.286C2.60487 14.7282 2.39761 15.2039 2.24759 15.7132L0.283497 22.2963C-0.784415 25.8731 1.25863 29.6493 4.83347 30.7172C8.41029 31.7832 12.1865 29.7421 13.2544 26.1653L15.0211 20.2434C13.7735 21.1475 12.2911 21.71 10.7356 21.8443Z" fill="white"/>
<path d="M13.9115 0.282769C10.3347 -0.783169 6.55848 1.25791 5.49057 4.83472L3.72388 10.7566C4.97142 9.85253 6.45189 9.28995 8.00934 9.15572L8.9904 5.86513C9.48192 4.21687 11.2229 3.27727 12.8712 3.76878C14.5195 4.2603 15.461 6.00133 14.9695 7.64959L12.9975 14.2584C12.5475 15.7685 11.0275 16.6765 9.49771 16.4159C9.37335 16.3942 9.24899 16.3666 9.12463 16.3291C8.40216 16.1139 7.64219 16.5265 7.42703 17.247L6.80918 19.3157C7.21186 19.5309 7.63626 19.7065 8.07843 19.8368C8.70615 20.0243 9.34177 20.1151 9.96751 20.1191C12.4093 20.1349 14.705 18.8163 15.9111 16.6726C16.1539 16.2422 16.3533 15.7784 16.4993 15.2849L18.4634 8.70171C19.5294 5.12884 17.4883 1.35068 13.9115 0.282769Z" fill="white"/>
</svg>
