<svg width="36" height="29" viewBox="0 0 36 29" fill="none" xmlns="http://www.w3.org/2000/svg">
<path d="M28.1919 2.60724H9.74619C9.17477 2.60724 8.71155 2.14401 8.71155 1.5726V1.05489C8.71155 0.472303 8.23925 0 7.65666 0H2.10979C0.944606 0 0 0.944536 0 2.10979V19.8622L2.70705 6.69214C2.80595 6.21104 3.22936 5.86579 3.72052 5.86579H30.3017V4.71702C30.3017 3.55177 29.3571 2.60724 28.1919 2.60724Z" fill="white"/>
<path d="M33.6514 7.93518H4.56416L0.493014 27.7414C0.359467 28.3912 0.855797 29 1.51927 29H31.7878C32.8632 29 33.7665 28.1911 33.8848 27.1222L35.7484 10.277C35.8867 9.02751 34.9085 7.93518 33.6514 7.93518Z" fill="white"/>
</svg>
