<svg width="28" height="32" viewBox="0 0 28 32" fill="none" xmlns="http://www.w3.org/2000/svg">
<path d="M8.96324 28.8017H4.88164C3.53577 28.8017 2.44082 27.7067 2.44082 26.3609V4.88164C2.44082 3.53577 3.53577 2.44082 4.88164 2.44082H19.8859C21.2318 2.44082 22.3267 3.53577 22.3267 4.88164V12.3872C22.3267 13.0612 22.8731 13.6076 23.5471 13.6076C24.2212 13.6076 24.7675 13.0612 24.7675 12.3872V4.88164C24.7675 2.1899 22.5776 0 19.8859 0H4.88164C2.1899 0 0 2.1899 0 4.88164V26.3609C0 29.0526 2.1899 31.2425 4.88164 31.2425H8.96324C9.63727 31.2425 10.1836 30.6961 10.1836 30.0221C10.1836 29.3481 9.63727 28.8017 8.96324 28.8017Z" fill="white"/>
<path d="M22.3182 18.2344L22.3175 18.235L15.6173 24.9204C15.6173 24.9204 15.6173 24.9204 15.6173 24.9204C15.5684 24.9692 15.5322 25.0294 15.512 25.0958L22.3182 18.2344ZM22.3182 18.2344C23.4322 17.1203 25.2483 17.1201 26.3636 18.2353C27.4786 19.3504 27.4787 21.1661 26.3642 22.2813C26.3642 22.2813 26.3641 22.2813 26.3641 22.2813C26.364 22.2815 26.3638 22.2816 26.3636 22.2818L19.678 28.9549L19.6779 28.955C19.6267 29.0061 19.5631 29.0432 19.4932 29.0625L19.4932 29.0625L14.5673 30.427L14.5671 30.4271C14.53 30.4374 14.4923 30.4423 14.4552 30.4423C14.3432 30.4423 14.2343 30.3976 14.1541 30.3154C14.0471 30.2057 14.0082 30.0465 14.0528 29.8997C14.0528 29.8996 14.0528 29.8996 14.0528 29.8996L15.5119 25.0959L22.3182 18.2344ZM18.9595 28.3379L19.1622 28.2818L19.3111 28.1332L23.8054 23.6473L24.3721 23.0816L23.8059 22.5154L22.0796 20.7891L21.5146 20.2241L20.9489 20.7885L16.4279 25.2994L16.2859 25.4412L16.2275 25.6332L15.5023 28.0209L15.0796 29.4127L16.4813 29.0244L18.9595 28.3379ZM25.7694 21.6871L25.77 21.6865C26.5577 20.8986 26.557 19.6179 25.7691 18.83C24.981 18.0419 23.7007 18.0417 22.9124 18.8294C22.9122 18.8296 22.912 18.8298 22.9118 18.83L22.6768 19.0646L22.1099 19.6303L22.6762 20.1965L24.4021 21.9225L24.9672 22.4876L25.5329 21.9231L25.7694 21.6871Z" stroke="white" stroke-width="1.6"/>
<path d="M19.8309 9.14404H12.1736C11.763 9.14404 11.4302 9.4852 11.4302 9.90605C11.4302 10.3269 11.763 10.6681 12.1736 10.6681H19.8309C20.2415 10.6681 20.5743 10.3269 20.5743 9.90605C20.5743 9.4852 20.2415 9.14404 19.8309 9.14404Z" fill="white"/>
<path d="M17.0307 15.2402H11.9258C11.6521 15.2402 11.4302 15.5814 11.4302 16.0022C11.4302 16.4231 11.6521 16.7643 11.9258 16.7643H17.0307C17.3044 16.7643 17.5263 16.4231 17.5263 16.0022C17.5263 15.5814 17.3044 15.2402 17.0307 15.2402Z" fill="white"/>
<path d="M9.00926 6.92673L6.62712 9.77335L5.40735 8.58635C5.38757 8.567 5.36446 8.55205 5.33932 8.54236C5.31419 8.53266 5.28753 8.52841 5.26088 8.52985C5.23422 8.53129 5.20809 8.53839 5.18398 8.55074C5.15986 8.5631 5.13824 8.58046 5.12035 8.60185L4.62455 9.1938C4.58854 9.23702 4.56983 9.29388 4.57252 9.35195C4.57521 9.41002 4.59907 9.46459 4.6389 9.50372L6.00719 10.8379L6.55609 11.3733C6.5954 11.4114 6.6468 11.4317 6.69959 11.4299H6.70748C6.73086 11.4278 6.7537 11.4213 6.77493 11.4105C6.79982 11.3987 6.82208 11.3812 6.84022 11.3594L7.33531 10.7666L9.85377 7.75654C9.87169 7.73518 9.88554 7.71022 9.89452 7.68308C9.90349 7.65594 9.90743 7.62715 9.9061 7.59837C9.90476 7.56958 9.89819 7.54137 9.88675 7.51533C9.87531 7.48929 9.85923 7.46594 9.83942 7.44662L9.29053 6.91201C9.25098 6.87472 9.19959 6.85542 9.14715 6.85817C9.09471 6.86091 9.04529 6.88548 9.00926 6.92673Z" fill="white"/>
<path d="M9.00926 13.7849L6.62712 16.6315L5.40735 15.4445C5.38757 15.4252 5.36446 15.4102 5.33932 15.4005C5.31419 15.3908 5.28753 15.3866 5.26088 15.388C5.23422 15.3894 5.20809 15.3965 5.18398 15.4089C5.15986 15.4213 5.13824 15.4386 5.12035 15.46L4.62455 16.052C4.58854 16.0952 4.56983 16.152 4.57252 16.2101C4.57521 16.2682 4.59907 16.3227 4.6389 16.3619L6.00719 17.6961L6.55609 18.2315C6.5954 18.2696 6.6468 18.2898 6.69959 18.288H6.70748C6.73086 18.286 6.7537 18.2794 6.77493 18.2687C6.79982 18.2568 6.82208 18.2394 6.84022 18.2175L7.33531 17.6248L9.85377 14.6147C9.87169 14.5933 9.88554 14.5684 9.89452 14.5412C9.90349 14.5141 9.90743 14.4853 9.9061 14.4565C9.90476 14.4277 9.89819 14.3995 9.88675 14.3735C9.87531 14.3474 9.85923 14.3241 9.83942 14.3048L9.29053 13.7702C9.25098 13.7329 9.19959 13.7136 9.14715 13.7163C9.09471 13.7191 9.04529 13.7436 9.00926 13.7849Z" fill="white"/>
</svg>
