<svg width="34" height="29" viewBox="0 0 34 29" fill="none" xmlns="http://www.w3.org/2000/svg">
<path d="M33.3404 1.31944C33.3404 1.27126 33.3324 1.22309 33.327 1.17491C33.3217 1.13477 33.319 1.09195 33.3083 1.05448C33.2976 1.01166 33.2842 0.971511 33.2681 0.92869C33.2547 0.885869 33.2414 0.845723 33.2253 0.805578C33.2092 0.76811 33.1852 0.730641 33.1637 0.695848C33.1423 0.655703 33.1209 0.615558 33.0942 0.578089C33.0728 0.545973 33.0433 0.516534 33.0192 0.487094C32.9871 0.449625 32.955 0.40948 32.9202 0.377364C32.9122 0.369335 32.9068 0.361306 32.8988 0.353277C32.8774 0.334543 32.8533 0.321161 32.8292 0.302426C32.7917 0.272987 32.7516 0.240871 32.7114 0.214107C32.674 0.19002 32.6365 0.171286 32.599 0.152551C32.5589 0.131141 32.5188 0.112406 32.4759 0.0963482C32.4331 0.0802902 32.3903 0.0669085 32.3448 0.0562031C32.3046 0.0454978 32.2645 0.0347924 32.2217 0.0267634C32.1708 0.0187344 32.1227 0.016058 32.0718 0.0107054C32.0477 0.00802902 32.021 0 31.9915 0H25.4532C24.7065 0 24.099 0.604853 24.099 1.35423C24.099 2.1036 24.7038 2.70846 25.4532 2.70846H28.9405L21.2005 11.2647L13.5087 5.06364C12.9975 4.65148 12.2642 4.66754 11.7691 5.09843L0.563256 14.9045C0.00122512 15.397 -0.054978 16.2507 0.434792 16.8154C0.702426 17.1205 1.07711 17.2785 1.45448 17.2785C1.77029 17.2785 2.08877 17.1687 2.3457 16.9439L12.6978 7.88717L20.4993 14.1766C21.0587 14.6262 21.8723 14.5646 22.3513 14.0321L30.64 4.87094V7.33585C30.64 8.08255 31.2448 8.69008 31.9942 8.69008C32.7409 8.69008 33.3484 8.08522 33.3484 7.33585V1.35423C33.3457 1.34085 33.3431 1.33282 33.3404 1.31944Z" fill="white"/>
<path d="M13.0016 14.0483H10.352C9.40457 14.0483 8.6311 14.8218 8.6311 15.7692V26.6004C8.6311 27.5478 9.40457 28.3213 10.352 28.3213H13.0016C13.949 28.3213 14.7225 27.5478 14.7225 26.6004V15.7665C14.7225 14.8218 13.949 14.0483 13.0016 14.0483Z" fill="white"/>
<path d="M30.2022 11.6748H27.6892C26.7069 11.6748 25.9014 12.4804 25.9014 13.4626V26.5338C25.9014 27.5161 26.7069 28.3216 27.6892 28.3216H30.2022C31.1845 28.3216 31.99 27.5161 31.99 26.5338V13.4626C31.99 12.4804 31.1845 11.6748 30.2022 11.6748Z" fill="white"/>
<path d="M21.598 17.6079H19.208C18.191 17.6079 17.3586 18.4403 17.3586 19.4573V26.4719C17.3586 27.489 18.191 28.3213 19.208 28.3213H21.598C22.615 28.3213 23.4473 27.489 23.4473 26.4719V19.4573C23.4473 18.4403 22.615 17.6079 21.598 17.6079Z" fill="white"/>
<path d="M4.39187 19.9792H1.6968C0.762757 19.9792 0 20.7447 0 21.676V26.6246C0 27.5586 0.762757 28.3214 1.6968 28.3214H4.39455C5.32859 28.3214 6.09135 27.5586 6.09135 26.6246V21.676C6.08867 20.7447 5.32592 19.9792 4.39187 19.9792Z" fill="white"/>
</svg>
