<svg width="31" height="32" viewBox="0 0 31 32" fill="none" xmlns="http://www.w3.org/2000/svg">
<path d="M23.7367 13.0291L13.5769 6.07511C13.107 5.75452 12.6349 5.58325 12.2418 5.58325C11.4821 5.58325 11.0122 6.19368 11.0122 7.21252V22.2426C11.0122 23.2615 11.4821 23.8697 12.2396 23.8697C12.6327 23.8697 13.0982 23.6984 13.5681 23.3778L23.7324 16.4238C24.3867 15.9759 24.749 15.372 24.749 14.7265C24.749 14.0809 24.3911 13.4771 23.7367 13.0291Z" fill="white"/>
<path d="M15.5 31.0022C6.95403 31.0022 0 24.0482 0 15.5C0 6.95403 6.95403 0 15.5 0C24.0482 0 31 6.95403 31 15.5C31.0022 24.0482 24.0482 31.0022 15.5 31.0022ZM15.5 2.42634C8.29126 2.42634 2.42634 8.29126 2.42634 15.5C2.42634 22.7087 8.29126 28.5737 15.5 28.5737C22.7087 28.5737 28.5737 22.7087 28.5737 15.5C28.5759 8.29126 22.7109 2.42634 15.5 2.42634Z" fill="white"/>
</svg>
