<svg width="33" height="33" viewBox="0 0 33 33" fill="none" xmlns="http://www.w3.org/2000/svg">
<g clip-path="url(#clip0)">
<path d="M31.3884 4.14967L28.8503 1.61158C27.8191 0.578819 26.4207 0 24.9617 0H3.78133C1.69265 0 0 1.69265 0 3.78133V29.2187C0 31.3074 1.69265 33 3.78133 33H29.2187C31.3074 33 33 31.3074 33 29.2187V8.03826C33 6.57925 32.4212 5.18092 31.3884 4.14967ZM5.49992 8.59367V5.15625C5.49992 4.587 5.96191 4.125 6.53117 4.125H20.9687C21.5379 4.125 21.9999 4.587 21.9999 5.15625V8.59367C21.9999 9.16292 21.5379 9.62492 20.9687 9.62492H6.53117C5.96191 9.62492 5.49992 9.16292 5.49992 8.59367ZM16.5 27.5001C13.0832 27.5001 10.3125 24.7294 10.3125 21.3126C10.3125 17.8956 13.0832 15.1251 16.5 15.1251C19.9168 15.1251 22.6875 17.8956 22.6875 21.3126C22.6875 24.7294 19.9168 27.5001 16.5 27.5001Z" fill="white"/>
</g>
<defs>
<clipPath id="clip0">
<rect width="33" height="33" fill="white"/>
</clipPath>
</defs>
</svg>
