<svg width="24" height="24" viewBox="0 0 24 24" fill="none" xmlns="http://www.w3.org/2000/svg">
<path d="M21.1797 23.9994C22.3204 23.9994 23.3487 23.3121 23.7852 22.2583C24.2217 21.2045 23.9805 19.9915 23.174 19.185L21.6991 17.7103L20.6278 18.7817C20.391 19.0185 20.007 19.0185 19.7703 18.7817C19.5335 18.5448 19.5335 18.161 19.7703 17.9242L20.8416 16.8528L18.0611 14.0724L16.9898 15.1437C16.753 15.3806 16.3691 15.3806 16.1323 15.1437C15.8955 14.9069 15.8955 14.5231 16.1323 14.2862L17.2036 13.2149L14.4231 10.4344L13.3518 11.5057C13.115 11.7426 12.7311 11.7426 12.4943 11.5057C12.2576 11.2689 12.2575 10.8851 12.4943 10.6482L13.5657 9.57687L10.7853 6.79644L9.71392 7.86774C9.47711 8.10456 9.09323 8.10456 8.85642 7.86774C8.61961 7.63093 8.61961 7.24706 8.85642 7.01025L9.9278 5.93887L7.1473 3.15844L6.07599 4.22975C5.83918 4.46656 5.4553 4.46656 5.21849 4.22975C4.98176 3.99294 4.98169 3.60906 5.21849 3.37225L6.2898 2.30094L4.81499 0.826136C4.00843 0.01957 2.79549 -0.221797 1.74175 0.21478C0.687941 0.651284 0.000734256 1.67959 0.000734206 2.82035L0.00080779 21.1792C0.000807757 21.9274 0.298034 22.6446 0.826777 23.1735C1.35559 23.7023 2.07293 23.9996 2.82099 23.9996L21.1797 23.9994ZM5.64111 18.3588L5.64096 9.6289L14.371 18.3589L5.64111 18.3588Z" fill="black"/>
</svg>
