<svg width="42" height="28" viewBox="0 0 42 28" fill="none" xmlns="http://www.w3.org/2000/svg">
<path d="M20.9692 13.3348C24.495 13.3348 27.3533 10.4765 27.3533 6.9506C27.3533 3.42471 24.495 0.566406 20.9692 0.566406C17.4433 0.566406 14.585 3.42471 14.585 6.9506C14.585 10.4765 17.4433 13.3348 20.9692 13.3348Z" fill="white"/>
<path d="M33.7376 16.9765C36.2554 16.9765 38.2965 14.9354 38.2965 12.4176C38.2965 9.89974 36.2554 7.85864 33.7376 7.85864C31.2198 7.85864 29.1787 9.89974 29.1787 12.4176C29.1787 14.9354 31.2198 16.9765 33.7376 16.9765Z" fill="white"/>
<path d="M8.33821 16.9765C10.856 16.9765 12.8971 14.9354 12.8971 12.4176C12.8971 9.89974 10.856 7.85864 8.33821 7.85864C5.82039 7.85864 3.7793 9.89974 3.7793 12.4176C3.7793 14.9354 5.82039 16.9765 8.33821 16.9765Z" fill="white"/>
<path d="M20.9696 15.1599C14.4312 15.1599 9.11816 20.4815 9.11816 27.0114C9.11816 27.517 9.52949 27.9197 10.0265 27.9197H31.9127C32.4183 27.9197 32.8211 27.5084 32.8211 27.0114C32.8297 20.4729 27.5081 15.1599 20.9696 15.1599Z" fill="white"/>
<path d="M9.90621 18.9989C9.3492 18.8789 8.78362 18.8018 8.2009 18.8018C3.68484 18.8018 0 22.4866 0 27.0112C0 27.5168 0.411331 27.9196 0.908355 27.9196H7.45537C7.35253 27.6368 7.28398 27.3283 7.28398 27.0112C7.29255 24.0205 8.26946 21.2526 9.90621 18.9989Z" fill="white"/>
<path d="M33.7375 18.8018C33.1634 18.8018 32.5978 18.8789 32.0322 18.9989C33.669 21.2526 34.6459 24.0119 34.6459 27.0112C34.6459 27.3283 34.5773 27.6368 34.4745 27.9196H41.0215C41.5271 27.9196 41.9299 27.5083 41.9299 27.0112C41.947 22.4866 38.2622 18.8018 33.7375 18.8018Z" fill="white"/>
</svg>
